{"asset":{"version":"2.0","generator":"Blockbench 4.6.4 glTF exporter"},"scenes":[{"nodes":[20],"name":"blockbench_export"}],"scene":0,"nodes":[{"name":"cube","mesh":0},{"translation":[-0.25,-0.0625,-0.25],"name":"tentacle1","children":[0]},{"translation":[0,0,-0.25],"name":"cube","mesh":1},{"translation":[-0.25,-0.0625,0],"name":"tentacle2","children":[2]},{"translation":[0,0,-0.5],"name":"cube","mesh":2},{"translation":[-0.25,-0.0625,0.25],"name":"tentacle3","children":[4]},{"translation":[-0.25,0,-0.5],"name":"cube","mesh":3},{"translation":[0,-0.0625,0.25],"name":"tentacle4","children":[6]},{"translation":[-0.5,0,-0.5],"name":"cube","mesh":4},{"translation":[0.25,-0.0625,0.25],"name":"tentacle5","children":[8]},{"translation":[-0.5,0,0],"name":"cube","mesh":5},{"translation":[0.25,-0.0625,-0.25],"name":"tentacle6","children":[10]},{"translation":[-0.5,0,-0.25],"name":"cube","mesh":6},{"translation":[0.25,-0.0625,0],"name":"tentacle7","children":[12]},{"translation":[-0.25,0,0],"name":"cube","mesh":7},{"translation":[0,-0.0625,-0.25],"name":"tentacle8","children":[14]},{"translation":[0,0.625,0],"name":"tentacles","children":[1,3,5,7,9,11,13,15]},{"name":"body","mesh":8},{"translation":[0,0.625,0],"name":"body","children":[17]},{"name":"root","children":[16,18]},{"children":[19]}],"bufferViews":[{"buffer":0,"byteOffset":0,"byteLength":288,"target":34962,"byteStride":12},{"buffer":0,"byteOffset":288,"byteLength":288,"target":34962,"byteStride":12},{"buffer":0,"byteOffset":576,"byteLength":192,"target":34962,"byteStride":8},{"buffer":0,"byteOffset":768,"byteLength":72,"target":34963},{"buffer":0,"byteOffset":840,"byteLength":288,"target":34962,"byteStride":12},{"buffer":0,"byteOffset":1128,"byteLength":288,"target":34962,"byteStride":12},{"buffer":0,"byteOffset":1416,"byteLength":192,"target":34962,"byteStride":8},{"buffer":0,"byteOffset":1608,"byteLength":72,"target":34963},{"buffer":0,"byteOffset":1680,"byteLength":288,"target":34962,"byteStride":12},{"buffer":0,"byteOffset":1968,"byteLength":288,"target":34962,"byteStride":12},{"buffer":0,"byteOffset":2256,"byteLength":192,"target":34962,"byteStride":8},{"buffer":0,"byteOffset":2448,"byteLength":72,"target":34963},{"buffer":0,"byteOffset":2520,"byteLength":288,"target":34962,"byteStride":12},{"buffer":0,"byteOffset":2808,"byteLength":288,"target":34962,"byteStride":12},{"buffer":0,"byteOffset":3096,"byteLength":192,"target":34962,"byteStride":8},{"buffer":0,"byteOffset":3288,"byteLength":72,"target":34963},{"buffer":0,"byteOffset":3360,"byteLength":288,"target":34962,"byteStride":12},{"buffer":0,"byteOffset":3648,"byteLength":288,"target":34962,"byteStride":12},{"buffer":0,"byteOffset":3936,"byteLength":192,"target":34962,"byteStride":8},{"buffer":0,"byteOffset":4128,"byteLength":72,"target":34963},{"buffer":0,"byteOffset":4200,"byteLength":288,"target":34962,"byteStride":12},{"buffer":0,"byteOffset":4488,"byteLength":288,"target":34962,"byteStride":12},{"buffer":0,"byteOffset":4776,"byteLength":192,"target":34962,"byteStride":8},{"buffer":0,"byteOffset":4968,"byteLength":72,"target":34963},{"buffer":0,"byteOffset":5040,"byteLength":288,"target":34962,"byteStride":12},{"buffer":0,"byteOffset":5328,"byteLength":288,"target":34962,"byteStride":12},{"buffer":0,"byteOffset":5616,"byteLength":192,"target":34962,"byteStride":8},{"buffer":0,"byteOffset":5808,"byteLength":72,"target":34963},{"buffer":0,"byteOffset":5880,"byteLength":288,"target":34962,"byteStride":12},{"buffer":0,"byteOffset":6168,"byteLength":288,"target":34962,"byteStride":12},{"buffer":0,"byteOffset":6456,"byteLength":192,"target":34962,"byteStride":8},{"buffer":0,"byteOffset":6648,"byteLength":72,"target":34963},{"buffer":0,"byteOffset":6720,"byteLength":288,"target":34962,"byteStride":12},{"buffer":0,"byteOffset":7008,"byteLength":288,"target":34962,"byteStride":12},{"buffer":0,"byteOffset":7296,"byteLength":192,"target":34962,"byteStride":8},{"buffer":0,"byteOffset":7488,"byteLength":72,"target":34963},{"buffer":0,"byteOffset":7560,"byteLength":88},{"buffer":0,"byteOffset":7648,"byteLength":352},{"buffer":0,"byteOffset":8000,"byteLength":8},{"buffer":0,"byteOffset":8008,"byteLength":24},{"buffer":0,"byteOffset":8032,"byteLength":88},{"buffer":0,"byteOffset":8120,"byteLength":352},{"buffer":0,"byteOffset":8472,"byteLength":8},{"buffer":0,"byteOffset":8480,"byteLength":24},{"buffer":0,"byteOffset":8504,"byteLength":88},{"buffer":0,"byteOffset":8592,"byteLength":352},{"buffer":0,"byteOffset":8944,"byteLength":8},{"buffer":0,"byteOffset":8952,"byteLength":24},{"buffer":0,"byteOffset":8976,"byteLength":88},{"buffer":0,"byteOffset":9064,"byteLength":352},{"buffer":0,"byteOffset":9416,"byteLength":8},{"buffer":0,"byteOffset":9424,"byteLength":24},{"buffer":0,"byteOffset":9448,"byteLength":88},{"buffer":0,"byteOffset":9536,"byteLength":352},{"buffer":0,"byteOffset":9888,"byteLength":8},{"buffer":0,"byteOffset":9896,"byteLength":24},{"buffer":0,"byteOffset":9920,"byteLength":88},{"buffer":0,"byteOffset":10008,"byteLength":352},{"buffer":0,"byteOffset":10360,"byteLength":8},{"buffer":0,"byteOffset":10368,"byteLength":24},{"buffer":0,"byteOffset":10392,"byteLength":88},{"buffer":0,"byteOffset":10480,"byteLength":352},{"buffer":0,"byteOffset":10832,"byteLength":8},{"buffer":0,"byteOffset":10840,"byteLength":24},{"buffer":0,"byteOffset":10864,"byteLength":88},{"buffer":0,"byteOffset":10952,"byteLength":352},{"buffer":0,"byteOffset":11304,"byteLength":8},{"buffer":0,"byteOffset":11312,"byteLength":24},{"buffer":0,"byteOffset":11336,"byteLength":88},{"buffer":0,"byteOffset":11424,"byteLength":352},{"buffer":0,"byteOffset":11776,"byteLength":8},{"buffer":0,"byteOffset":11784,"byteLength":24},{"buffer":0,"byteOffset":11808,"byteLength":88},{"buffer":0,"byteOffset":11896,"byteLength":264}],"buffers":[{"byteLength":12160,"uri":"data:application/octet-stream;base64,"}],"accessors":[{"bufferView":0,"componentType":5126,"count":24,"max":[0.0625,0,0.0625],"min":[-0.0625,-0.5625,-0.0625],"type":"VEC3"},{"bufferView":1,"componentType":5126,"count":24,"max":[1,1,1],"min":[-1,-1,-1],"type":"VEC3"},{"bufferView":2,"componentType":5126,"count":24,"max":[0.625,1],"min":[0,0.4375],"type":"VEC2"},{"bufferView":3,"componentType":5123,"count":36,"max":[23],"min":[0],"type":"SCALAR"},{"bufferView":4,"componentType":5126,"count":24,"max":[0.0625,0,0.3125],"min":[-0.0625,-0.5625,0.1875],"type":"VEC3"},{"bufferView":5,"componentType":5126,"count":24,"max":[1,1,1],"min":[-1,-1,-1],"type":"VEC3"},{"bufferView":6,"componentType":5126,"count":24,"max":[0.625,1],"min":[0,0.4375],"type":"VEC2"},{"bufferView":7,"componentType":5123,"count":36,"max":[23],"min":[0],"type":"SCALAR"},{"bufferView":8,"componentType":5126,"count":24,"max":[0.0625,0,0.5625],"min":[-0.0625,-0.5625,0.4375],"type":"VEC3"},{"bufferView":9,"componentType":5126,"count":24,"max":[1,1,1],"min":[-1,-1,-1],"type":"VEC3"},{"bufferView":10,"componentType":5126,"count":24,"max":[0.625,1],"min":[0,0.4375],"type":"VEC2"},{"bufferView":11,"componentType":5123,"count":36,"max":[23],"min":[0],"type":"SCALAR"},{"bufferView":12,"componentType":5126,"count":24,"max":[0.3125,0,0.5625],"min":[0.1875,-0.5625,0.4375],"type":"VEC3"},{"bufferView":13,"componentType":5126,"count":24,"max":[1,1,1],"min":[-1,-1,-1],"type":"VEC3"},{"bufferView":14,"componentType":5126,"count":24,"max":[0.625,1],"min":[0,0.4375],"type":"VEC2"},{"bufferView":15,"componentType":5123,"count":36,"max":[23],"min":[0],"type":"SCALAR"},{"bufferView":16,"componentType":5126,"count":24,"max":[0.5625,0,0.5625],"min":[0.4375,-0.5625,0.4375],"type":"VEC3"},{"bufferView":17,"componentType":5126,"count":24,"max":[1,1,1],"min":[-1,-1,-1],"type":"VEC3"},{"bufferView":18,"componentType":5126,"count":24,"max":[0.625,1],"min":[0,0.4375],"type":"VEC2"},{"bufferView":19,"componentType":5123,"count":36,"max":[23],"min":[0],"type":"SCALAR"},{"bufferView":20,"componentType":5126,"count":24,"max":[0.5625,0,0.0625],"min":[0.4375,-0.5625,-0.0625],"type":"VEC3"},{"bufferView":21,"componentType":5126,"count":24,"max":[1,1,1],"min":[-1,-1,-1],"type":"VEC3"},{"bufferView":22,"componentType":5126,"count":24,"max":[0.625,1],"min":[0,0.4375],"type":"VEC2"},{"bufferView":23,"componentType":5123,"count":36,"max":[23],"min":[0],"type":"SCALAR"},{"bufferView":24,"componentType":5126,"count":24,"max":[0.5625,0,0.3125],"min":[0.4375,-0.5625,0.1875],"type":"VEC3"},{"bufferView":25,"componentType":5126,"count":24,"max":[1,1,1],"min":[-1,-1,-1],"type":"VEC3"},{"bufferView":26,"componentType":5126,"count":24,"max":[0.625,1],"min":[0,0.4375],"type":"VEC2"},{"bufferView":27,"componentType":5123,"count":36,"max":[23],"min":[0],"type":"SCALAR"},{"bufferView":28,"componentType":5126,"count":24,"max":[0.3125,0,0.0625],"min":[0.1875,-0.5625,-0.0625],"type":"VEC3"},{"bufferView":29,"componentType":5126,"count":24,"max":[1,1,1],"min":[-1,-1,-1],"type":"VEC3"},{"bufferView":30,"componentType":5126,"count":24,"max":[0.625,1],"min":[0,0.4375],"type":"VEC2"},{"bufferView":31,"componentType":5123,"count":36,"max":[23],"min":[0],"type":"SCALAR"},{"bufferView":32,"componentType":5126,"count":24,"max":[0.3125,0.4375,0.3125],"min":[-0.3125,-0.0625,-0.3125],"type":"VEC3"},{"bufferView":33,"componentType":5126,"count":24,"max":[1,1,1],"min":[-1,-1,-1],"type":"VEC3"},{"bufferView":34,"componentType":5126,"count":24,"max":[0.3125,1],"min":[0,0.125],"type":"VEC2"},{"bufferView":35,"componentType":5123,"count":36,"max":[23],"min":[0],"type":"SCALAR"},{"bufferView":36,"componentType":5126,"count":22,"max":[1.25],"min":[0],"type":"SCALAR"},{"bufferView":37,"componentType":5126,"count":22,"max":[0.17465972900390625,0.0035574103239923716,0,1],"min":[0,-0.010269342921674252,-0.17755505442619324,0.968433141708374],"type":"VEC4"},{"bufferView":38,"componentType":5126,"count":2,"max":[1.25],"min":[0],"type":"SCALAR"},{"bufferView":39,"componentType":5126,"count":2,"max":[-0.25,-0.0625,-0.25],"min":[-0.25,-0.0625,-0.25],"type":"VEC3"},{"bufferView":40,"componentType":5126,"count":22,"max":[1.25],"min":[0],"type":"SCALAR"},{"bufferView":41,"componentType":5126,"count":22,"max":[0,0,0,1],"min":[0,0,-0.258819043636322,0.9659258127212524],"type":"VEC4"},{"bufferView":42,"componentType":5126,"count":2,"max":[1.25],"min":[0],"type":"SCALAR"},{"bufferView":43,"componentType":5126,"count":2,"max":[-0.25,-0.0625,0],"min":[-0.25,-0.0625,0],"type":"VEC3"},{"bufferView":44,"componentType":5126,"count":22,"max":[1.25],"min":[0],"type":"SCALAR"},{"bufferView":45,"componentType":5126,"count":22,"max":[0,0.0016566464910283685,0,1],"min":[-0.17601697146892548,-0.00664942292496562,-0.16849958896636963,0.9698572754859924],"type":"VEC4"},{"bufferView":46,"componentType":5126,"count":2,"max":[1.25],"min":[0],"type":"SCALAR"},{"bufferView":47,"componentType":5126,"count":2,"max":[-0.25,-0.0625,0.25],"min":[-0.25,-0.0625,0.25],"type":"VEC3"},{"bufferView":48,"componentType":5126,"count":22,"max":[1.25],"min":[0],"type":"SCALAR"},{"bufferView":49,"componentType":5126,"count":22,"max":[0,0,0,1],"min":[-0.258819043636322,0,0,0.9659258127212524],"type":"VEC4"},{"bufferView":50,"componentType":5126,"count":2,"max":[1.25],"min":[0],"type":"SCALAR"},{"bufferView":51,"componentType":5126,"count":2,"max":[0,-0.0625,0.25],"min":[0,-0.0625,0.25],"type":"VEC3"},{"bufferView":52,"componentType":5126,"count":22,"max":[1.25],"min":[0],"type":"SCALAR"},{"bufferView":53,"componentType":5126,"count":22,"max":[0,0.00553077831864357,0.17541807889938354,1],"min":[-0.17541807889938354,-0.004813523963093758,0,0.9687279462814331],"type":"VEC4"},{"bufferView":54,"componentType":5126,"count":2,"max":[1.25],"min":[0],"type":"SCALAR"},{"bufferView":55,"componentType":5126,"count":2,"max":[0.25,-0.0625,0.25],"min":[0.25,-0.0625,0.25],"type":"VEC3"},{"bufferView":56,"componentType":5126,"count":22,"max":[1.25],"min":[0],"type":"SCALAR"},{"bufferView":57,"componentType":5126,"count":22,"max":[0.17664498090744019,0,0.17664498090744019,1],"min":[0,-0.00906639825552702,0,0.9682910442352295],"type":"VEC4"},{"bufferView":58,"componentType":5126,"count":2,"max":[1.25],"min":[0],"type":"SCALAR"},{"bufferView":59,"componentType":5126,"count":2,"max":[0.25,-0.0625,-0.25],"min":[0.25,-0.0625,-0.25],"type":"VEC3"},{"bufferView":60,"componentType":5126,"count":22,"max":[1.25],"min":[0],"type":"SCALAR"},{"bufferView":61,"componentType":5126,"count":22,"max":[0,0,0.258819043636322,1],"min":[0,0,0,0.9659258127212524],"type":"VEC4"},{"bufferView":62,"componentType":5126,"count":2,"max":[1.25],"min":[0],"type":"SCALAR"},{"bufferView":63,"componentType":5126,"count":2,"max":[0.25,-0.0625,0],"min":[0.25,-0.0625,0],"type":"VEC3"},{"bufferView":64,"componentType":5126,"count":22,"max":[1.25],"min":[0],"type":"SCALAR"},{"bufferView":65,"componentType":5126,"count":22,"max":[0.258819043636322,0,0,1],"min":[0,0,0,0.9659258127212524],"type":"VEC4"},{"bufferView":66,"componentType":5126,"count":2,"max":[1.25],"min":[0],"type":"SCALAR"},{"bufferView":67,"componentType":5126,"count":2,"max":[0,-0.0625,-0.25],"min":[0,-0.0625,-0.25],"type":"VEC3"},{"bufferView":68,"componentType":5126,"count":22,"max":[2],"min":[0],"type":"SCALAR"},{"bufferView":69,"componentType":5126,"count":22,"max":[0,0.005133737809956074,0,1],"min":[0,-1,0,-1],"type":"VEC4"},{"bufferView":70,"componentType":5126,"count":2,"max":[1.25],"min":[0],"type":"SCALAR"},{"bufferView":71,"componentType":5126,"count":2,"max":[0,0.625,0],"min":[0,0.625,0],"type":"VEC3"},{"bufferView":72,"componentType":5126,"count":22,"max":[1.25],"min":[0],"type":"SCALAR"},{"bufferView":73,"componentType":5126,"count":22,"max":[1.100000023841858,1.100000023841858,1.100000023841858],"min":[1,1,1],"type":"VEC3"}],"materials":[{"pbrMetallicRoughness":{"metallicFactor":0,"roughnessFactor":1,"baseColorTexture":{"index":0}},"alphaMode":"MASK","alphaCutoff":0.05,"doubleSided":true},{"pbrMetallicRoughness":{"metallicFactor":0,"roughnessFactor":1,"baseColorTexture":{"index":1}},"alphaMode":"MASK","alphaCutoff":0.05,"doubleSided":true}],"textures":[{"sampler":0,"source":0,"name":"tentacle texture.png"},{"sampler":1,"source":1,"name":"body texture.png"}],"samplers":[{"magFilter":9728,"minFilter":9728,"wrapS":33071,"wrapT":33071},{"magFilter":9728,"minFilter":9728,"wrapS":33071,"wrapT":33071}],"images":[{"mimeType":"image/png","uri":"data:image/png;base64,"},{"mimeType":"image/png","uri":"data:image/png;base64,"}],"meshes":[{"primitives":[{"mode":4,"attributes":{"POSITION":0,"NORMAL":1,"TEXCOORD_0":2},"indices":3,"material":0}]},{"primitives":[{"mode":4,"attributes":{"POSITION":4,"NORMAL":5,"TEXCOORD_0":6},"indices":7,"material":0}]},{"primitives":[{"mode":4,"attributes":{"POSITION":8,"NORMAL":9,"TEXCOORD_0":10},"indices":11,"material":0}]},{"primitives":[{"mode":4,"attributes":{"POSITION":12,"NORMAL":13,"TEXCOORD_0":14},"indices":15,"material":0}]},{"primitives":[{"mode":4,"attributes":{"POSITION":16,"NORMAL":17,"TEXCOORD_0":18},"indices":19,"material":0}]},{"primitives":[{"mode":4,"attributes":{"POSITION":20,"NORMAL":21,"TEXCOORD_0":22},"indices":23,"material":0}]},{"primitives":[{"mode":4,"attributes":{"POSITION":24,"NORMAL":25,"TEXCOORD_0":26},"indices":27,"material":0}]},{"primitives":[{"mode":4,"attributes":{"POSITION":28,"NORMAL":29,"TEXCOORD_0":30},"indices":31,"material":0}]},{"primitives":[{"mode":4,"attributes":{"POSITION":32,"NORMAL":33,"TEXCOORD_0":34},"indices":35,"material":1}]}],"animations":[{"name":"glowjelly.move","samplers":[{"input":36,"output":37,"interpolation":"LINEAR"},{"input":38,"output":39,"interpolation":"LINEAR"},{"input":40,"output":41,"interpolation":"LINEAR"},{"input":42,"output":43,"interpolation":"LINEAR"},{"input":44,"output":45,"interpolation":"LINEAR"},{"input":46,"output":47,"interpolation":"LINEAR"},{"input":48,"output":49,"interpolation":"LINEAR"},{"input":50,"output":51,"interpolation":"LINEAR"},{"input":52,"output":53,"interpolation":"LINEAR"},{"input":54,"output":55,"interpolation":"LINEAR"},{"input":56,"output":57,"interpolation":"LINEAR"},{"input":58,"output":59,"interpolation":"LINEAR"},{"input":60,"output":61,"interpolation":"LINEAR"},{"input":62,"output":63,"interpolation":"LINEAR"},{"input":64,"output":65,"interpolation":"LINEAR"},{"input":66,"output":67,"interpolation":"LINEAR"},{"input":68,"output":69,"interpolation":"LINEAR"},{"input":70,"output":71,"interpolation":"LINEAR"},{"input":72,"output":73,"interpolation":"LINEAR"}],"channels":[{"sampler":0,"target":{"node":1,"path":"rotation"}},{"sampler":1,"target":{"node":1,"path":"translation"}},{"sampler":2,"target":{"node":3,"path":"rotation"}},{"sampler":3,"target":{"node":3,"path":"translation"}},{"sampler":4,"target":{"node":5,"path":"rotation"}},{"sampler":5,"target":{"node":5,"path":"translation"}},{"sampler":6,"target":{"node":7,"path":"rotation"}},{"sampler":7,"target":{"node":7,"path":"translation"}},{"sampler":8,"target":{"node":9,"path":"rotation"}},{"sampler":9,"target":{"node":9,"path":"translation"}},{"sampler":10,"target":{"node":11,"path":"rotation"}},{"sampler":11,"target":{"node":11,"path":"translation"}},{"sampler":12,"target":{"node":13,"path":"rotation"}},{"sampler":13,"target":{"node":13,"path":"translation"}},{"sampler":14,"target":{"node":15,"path":"rotation"}},{"sampler":15,"target":{"node":15,"path":"translation"}},{"sampler":16,"target":{"node":19,"path":"rotation"}},{"sampler":17,"target":{"node":18,"path":"translation"}},{"sampler":18,"target":{"node":18,"path":"scale"}}]}]}